<svg width="105" height="53" viewBox="0 0 105 53" fill="none" xmlns="http://www.w3.org/2000/svg">
<path d="M28.8995 52.3956C28.4941 52.7981 27.9637 53 27.4319 53C26.9002 53 26.3698 52.7981 25.9643 52.3956L2.93244 29.4527L0 26.5304L2.93383 23.6095L25.9643 0.666618C26.7752 -0.139681 28.0887 -0.139681 28.8995 0.666618C29.305 1.07046 29.5063 1.59877 29.5063 2.12847C29.5063 2.65678 29.305 3.18648 28.8995 3.58893L7.41302 24.9911C7.35609 25.0423 7.30195 25.0962 7.25057 25.1529C6.92151 25.5181 6.72157 26.0007 6.72157 26.5304C6.72157 27.0601 6.92151 27.5442 7.25057 27.9093C7.25474 27.9134 7.25752 27.9176 7.26029 27.9204C7.30472 27.9702 7.35193 28.0172 7.40191 28.0614C7.40469 28.0642 7.40885 28.067 7.41302 28.0711L28.8995 49.4733C29.709 50.2796 29.709 51.5879 28.8995 52.3956Z" fill="white"/>
<path d="M6.37967 24.1586H6.37584V24.1624H6.37967V24.1586Z" fill="white"/>
<path d="M6.37967 24.1586H6.37584V24.1624H6.37967V24.1586Z" fill="white"/>
<path d="M76.1005 0.60438C76.5059 0.201922 77.0363 0 77.5681 0C78.0999 0 78.6303 0.201922 79.0357 0.60438L102.068 23.5473L105 26.4696L102.066 29.3905L79.0357 52.3334C78.2248 53.1397 76.9113 53.1397 76.1005 52.3334C75.6951 51.9296 75.4937 51.4013 75.4937 50.8716C75.4937 50.3432 75.6951 49.8136 76.1005 49.4111L97.587 28.0089C97.6439 27.9577 97.6981 27.9038 97.7494 27.8471C98.0785 27.482 98.2784 26.9993 98.2784 26.4696C98.2784 25.9399 98.0785 25.4558 97.7494 25.0907C97.7453 25.0866 97.7425 25.0824 97.7397 25.0797C97.6953 25.0299 97.6481 24.9828 97.5981 24.9386C97.5953 24.9358 97.5912 24.9331 97.587 24.9289L76.1005 3.5267C75.291 2.7204 75.291 1.41206 76.1005 0.60438Z" fill="white"/>
<path d="M71.8573 23.4145C71.2311 24.0382 70.2161 24.0382 69.5899 23.4145L64.8997 18.7427C64.2735 18.1189 63.2585 18.1189 62.6337 18.7427L44.6364 36.6721C44.0102 37.2958 44.0102 38.3068 44.6364 38.9292L49.3267 43.5996C49.9529 44.2234 49.9529 45.233 49.3267 45.8567C48.7005 46.4805 47.6855 46.4805 47.0607 45.8567L33.1483 31.9989C32.5221 31.3751 32.5221 30.3642 33.1483 29.7418C33.7745 29.1181 34.788 29.1181 35.4142 29.7418L40.1045 34.4123C40.7307 35.036 41.7443 35.036 42.3705 34.4123L60.3678 16.4856C60.994 15.8618 60.994 14.8522 60.3678 14.2285L55.6789 9.55665C55.0527 8.93291 55.0527 7.92331 55.6789 7.29957C56.3051 6.67583 57.3187 6.67583 57.9449 7.29957L71.8573 21.1574C72.4835 21.7798 72.4835 22.7908 71.8573 23.4145Z" fill="white"/>
</svg>
